<?xml version="1.0" encoding="UTF-8" standalone="no"?><svg xmlns="http://www.w3.org/2000/svg" xmlns:xlink="http://www.w3.org/1999/xlink" contentScriptType="application/ecmascript" contentStyleType="text/css" height="913px" preserveAspectRatio="none" style="width:746px;height:913px;background:#FFFFFF;" version="1.1" viewBox="0 0 746 913" width="746px" zoomAndPan="magnify"><defs><filter height="300%" id="f1lsu57x8ingen" width="300%" x="-1" y="-1"><feGaussianBlur result="blurOut" stdDeviation="2.0"/><feColorMatrix in="blurOut" result="blurOut2" type="matrix" values="0 0 0 0 0 0 0 0 0 0 0 0 0 0 0 0 0 0 .4 0"/><feOffset dx="4.0" dy="4.0" in="blurOut2" result="blurOut3"/><feBlend in="SourceGraphic" in2="blurOut3" mode="normal"/></filter></defs><g><text fill="#000000" font-family="sans-serif" font-size="18" lengthAdjust="spacing" textLength="51" x="341" y="18.6855">Chess</text><!--MD5=[996ab38d91e5b3818eb4d6881d00dd70]
class ChessColours--><rect codeLine="4" fill="#FEFECE" filter="url(#f1lsu57x8ingen)" height="89.5078" id="ChessColours" style="stroke:#A80036;stroke-width:1.5;" width="113" x="30" y="98.6406"/><ellipse cx="45" cy="114.6406" fill="#EB937F" rx="11" ry="11" style="stroke:#A80036;stroke-width:1.0;"/><path d="M43.8594,115.4375 L43.8594,117.9375 L48.1875,117.9375 L48.1875,117.0156 Q48.1875,116.4063 48.4219,116.1406 Q48.6719,115.875 49.0469,115.875 Q49.4219,115.875 49.6563,116.1406 Q49.8906,116.4063 49.8906,117.0156 L49.8906,119.6406 L41.8906,119.6406 Q41.2656,119.6406 41,119.4063 Q40.75,119.1719 40.75,118.7813 Q40.75,118.4063 41.0156,118.1719 Q41.2813,117.9375 41.8906,117.9375 L42.1563,117.9375 L42.1563,111.2813 L41.8906,111.2813 Q41.2656,111.2813 41,111.0469 Q40.75,110.8125 40.75,110.4219 Q40.75,110.0469 41,109.8125 Q41.2656,109.5781 41.8906,109.5781 L49.5156,109.5781 L49.5156,112.1719 Q49.5156,112.7813 49.2813,113.0469 Q49.0625,113.2969 48.6719,113.2969 Q48.2969,113.2969 48.0625,113.0469 Q47.8281,112.7813 47.8281,112.1719 L47.8281,111.2813 L43.8594,111.2813 L43.8594,113.7344 L45.3438,113.7344 Q45.3438,113.0781 45.4688,112.8906 Q45.7344,112.4844 46.2031,112.4844 Q46.5781,112.4844 46.8125,112.75 Q47.0469,113 47.0469,113.6094 L47.0469,115.5781 Q47.0469,116.125 46.9219,116.3125 Q46.6563,116.7031 46.2031,116.7031 Q45.7344,116.7031 45.4688,116.2969 Q45.3438,116.1094 45.3438,115.4375 L43.8594,115.4375 Z " fill="#000000"/><text fill="#000000" font-family="sans-serif" font-size="12" lengthAdjust="spacing" textLength="81" x="59" y="119.5508">ChessColours</text><line style="stroke:#A80036;stroke-width:1.5;" x1="31" x2="142" y1="130.6406" y2="130.6406"/><text fill="#000000" font-family="sans-serif" font-size="11" lengthAdjust="spacing" textLength="31" x="36" y="146.0596">WHITE</text><text fill="#000000" font-family="sans-serif" font-size="11" lengthAdjust="spacing" textLength="35" x="36" y="159.8955">BLACK</text><line style="stroke:#A80036;stroke-width:1.5;" x1="31" x2="142" y1="166.3125" y2="166.3125"/><text fill="#000000" font-family="sans-serif" font-size="11" lengthAdjust="spacing" textLength="76" x="36" y="181.7314">String toString()</text><!--MD5=[1981719fa3982d92ef7fd3f06d73b3e7]
class Move--><rect codeLine="10" fill="#FEFECE" filter="url(#f1lsu57x8ingen)" height="103.3438" id="Move" style="stroke:#A80036;stroke-width:1.5;" width="201" x="7" y="400.6406"/><ellipse cx="89.25" cy="416.6406" fill="#ADD1B2" rx="11" ry="11" style="stroke:#A80036;stroke-width:1.0;"/><path d="M92.0156,412.5156 Q92.1719,412.2969 92.3594,412.1875 Q92.5469,412.0781 92.7656,412.0781 Q93.1406,412.0781 93.375,412.3438 Q93.6094,412.5938 93.6094,413.2031 L93.6094,414.6563 Q93.6094,415.2656 93.375,415.5313 Q93.1406,415.7969 92.7656,415.7969 Q92.4219,415.7969 92.2188,415.5938 Q92.0156,415.4063 91.9063,414.8906 Q91.8594,414.5313 91.6719,414.3438 Q91.3438,413.9688 90.7344,413.75 Q90.125,413.5313 89.5,413.5313 Q88.7344,413.5313 88.0938,413.8594 Q87.4688,414.1875 86.9688,414.9375 Q86.4844,415.6875 86.4844,416.7188 L86.4844,417.8125 Q86.4844,419.0469 87.375,419.875 Q88.2656,420.6875 89.8594,420.6875 Q90.7969,420.6875 91.4531,420.4375 Q91.8438,420.2813 92.2656,419.8438 Q92.5313,419.5781 92.6719,419.5 Q92.8281,419.4219 93.0313,419.4219 Q93.3594,419.4219 93.6094,419.6875 Q93.875,419.9375 93.875,420.2813 Q93.875,420.625 93.5313,421.0313 Q93.0313,421.6094 92.2344,421.9375 Q91.1563,422.3906 89.8594,422.3906 Q88.3438,422.3906 87.1406,421.7656 Q86.1563,421.2656 85.4688,420.2031 Q84.7813,419.125 84.7813,417.8438 L84.7813,416.6875 Q84.7813,415.3594 85.3906,414.2188 Q86.0156,413.0625 87.1094,412.4531 Q88.2031,411.8281 89.4375,411.8281 Q90.1719,411.8281 90.8125,412 Q91.4688,412.1563 92.0156,412.5156 Z " fill="#000000"/><text fill="#000000" font-family="sans-serif" font-size="12" lengthAdjust="spacing" textLength="28" x="109.75" y="421.5508">Move</text><line style="stroke:#A80036;stroke-width:1.5;" x1="8" x2="207" y1="432.6406" y2="432.6406"/><rect fill="none" height="6" style="stroke:#C82930;stroke-width:1.0;" width="6" x="15" y="440.6406"/><text fill="#000000" font-family="sans-serif" font-size="11" lengthAdjust="spacing" textLength="175" x="27" y="448.0596">Pair&lt;int row, int col&gt; fromCoordinate</text><rect fill="none" height="6" style="stroke:#C82930;stroke-width:1.0;" width="6" x="15" y="454.4766"/><text fill="#000000" font-family="sans-serif" font-size="11" lengthAdjust="spacing" textLength="162" x="27" y="461.8955">Pair&lt;int row, int col&gt; toCoordinate</text><line style="stroke:#A80036;stroke-width:1.5;" x1="8" x2="207" y1="468.3125" y2="468.3125"/><ellipse cx="18" cy="479.3125" fill="#84BE84" rx="3" ry="3" style="stroke:#038048;stroke-width:1.0;"/><text fill="#000000" font-family="sans-serif" font-size="11" lengthAdjust="spacing" textLength="162" x="27" y="483.7314">boolean isValidMove(Move move)</text><ellipse cx="18" cy="493.1484" fill="#84BE84" rx="3" ry="3" style="stroke:#038048;stroke-width:1.0;"/><text fill="#000000" font-family="sans-serif" font-size="11" lengthAdjust="spacing" textLength="76" x="27" y="497.5674">String toString()</text><!--MD5=[9563755d011c5cec7ec66dc53565a59e]
class Board--><rect codeLine="18" fill="#FEFECE" filter="url(#f1lsu57x8ingen)" height="269.375" id="Board" style="stroke:#A80036;stroke-width:1.5;" width="330" x="243.5" y="317.6406"/><ellipse cx="387.75" cy="333.6406" fill="#ADD1B2" rx="11" ry="11" style="stroke:#A80036;stroke-width:1.0;"/><path d="M390.5156,329.5156 Q390.6719,329.2969 390.8594,329.1875 Q391.0469,329.0781 391.2656,329.0781 Q391.6406,329.0781 391.875,329.3438 Q392.1094,329.5938 392.1094,330.2031 L392.1094,331.6563 Q392.1094,332.2656 391.875,332.5313 Q391.6406,332.7969 391.2656,332.7969 Q390.9219,332.7969 390.7188,332.5938 Q390.5156,332.4063 390.4063,331.8906 Q390.3594,331.5313 390.1719,331.3438 Q389.8438,330.9688 389.2344,330.75 Q388.625,330.5313 388,330.5313 Q387.2344,330.5313 386.5938,330.8594 Q385.9688,331.1875 385.4688,331.9375 Q384.9844,332.6875 384.9844,333.7188 L384.9844,334.8125 Q384.9844,336.0469 385.875,336.875 Q386.7656,337.6875 388.3594,337.6875 Q389.2969,337.6875 389.9531,337.4375 Q390.3438,337.2813 390.7656,336.8438 Q391.0313,336.5781 391.1719,336.5 Q391.3281,336.4219 391.5313,336.4219 Q391.8594,336.4219 392.1094,336.6875 Q392.375,336.9375 392.375,337.2813 Q392.375,337.625 392.0313,338.0313 Q391.5313,338.6094 390.7344,338.9375 Q389.6563,339.3906 388.3594,339.3906 Q386.8438,339.3906 385.6406,338.7656 Q384.6563,338.2656 383.9688,337.2031 Q383.2813,336.125 383.2813,334.8438 L383.2813,333.6875 Q383.2813,332.3594 383.8906,331.2188 Q384.5156,330.0625 385.6094,329.4531 Q386.7031,328.8281 387.9375,328.8281 Q388.6719,328.8281 389.3125,329 Q389.9688,329.1563 390.5156,329.5156 Z " fill="#000000"/><text fill="#000000" font-family="sans-serif" font-size="12" lengthAdjust="spacing" textLength="33" x="408.25" y="338.5508">Board</text><line style="stroke:#A80036;stroke-width:1.5;" x1="244.5" x2="572.5" y1="349.6406" y2="349.6406"/><rect fill="none" height="6" style="stroke:#C82930;stroke-width:1.0;" width="6" x="251.5" y="357.6406"/><text fill="#000000" font-family="sans-serif" font-size="11" lengthAdjust="spacing" textLength="133" x="263.5" y="365.0596">List&lt;ArrayList&lt;Piece&gt;&gt; grid</text><rect fill="none" height="6" style="stroke:#C82930;stroke-width:1.0;" width="6" x="251.5" y="371.4766"/><text fill="#000000" font-family="sans-serif" font-size="11" lengthAdjust="spacing" textLength="103" x="263.5" y="378.8955">Board previousBoard</text><rect fill="none" height="6" style="stroke:#C82930;stroke-width:1.0;" width="6" x="251.5" y="385.3125"/><text fill="#000000" font-family="sans-serif" font-size="11" lengthAdjust="spacing" textLength="82" x="263.5" y="392.7314">Board nextBoard</text><line style="stroke:#A80036;stroke-width:1.5;" x1="244.5" x2="572.5" y1="399.1484" y2="399.1484"/><ellipse cx="254.5" cy="410.1484" fill="#84BE84" rx="3" ry="3" style="stroke:#038048;stroke-width:1.0;"/><text fill="#000000" font-family="sans-serif" font-size="11" lengthAdjust="spacing" textLength="155" x="263.5" y="414.5674">boolean makeMove(Move move)</text><ellipse cx="254.5" cy="423.9844" fill="#84BE84" rx="3" ry="3" style="stroke:#038048;stroke-width:1.0;"/><text fill="#000000" font-family="sans-serif" font-size="11" lengthAdjust="spacing" textLength="230" x="263.5" y="428.4033">Piece getPiece(Pair&lt;int row, int col&gt; coordinate)</text><ellipse cx="254.5" cy="437.8203" fill="#84BE84" rx="3" ry="3" style="stroke:#038048;stroke-width:1.0;"/><text fill="#000000" font-family="sans-serif" font-size="11" lengthAdjust="spacing" textLength="115" x="263.5" y="442.2393">void castle(Piece piece)</text><ellipse cx="254.5" cy="451.6563" fill="#84BE84" rx="3" ry="3" style="stroke:#038048;stroke-width:1.0;"/><text fill="#000000" font-family="sans-serif" font-size="11" lengthAdjust="spacing" textLength="115" x="263.5" y="456.0752">Board goToNextBoard()</text><ellipse cx="254.5" cy="465.4922" fill="#84BE84" rx="3" ry="3" style="stroke:#038048;stroke-width:1.0;"/><text fill="#000000" font-family="sans-serif" font-size="11" lengthAdjust="spacing" textLength="135" x="263.5" y="469.9111">Board goToPreviousBoard()</text><ellipse cx="254.5" cy="479.3281" fill="#84BE84" rx="3" ry="3" style="stroke:#038048;stroke-width:1.0;"/><text fill="#000000" font-family="sans-serif" font-size="11" lengthAdjust="spacing" textLength="76" x="263.5" y="483.7471">String toString()</text><rect fill="#F24D5C" height="6" style="stroke:#C82930;stroke-width:1.0;" width="6" x="251.5" y="490.1641"/><text fill="#000000" font-family="sans-serif" font-size="11" lengthAdjust="spacing" textLength="153" x="263.5" y="497.583">boolean checkBoardForCheck()</text><rect fill="#F24D5C" height="6" style="stroke:#C82930;stroke-width:1.0;" width="6" x="251.5" y="504"/><text fill="#000000" font-family="sans-serif" font-size="11" lengthAdjust="spacing" textLength="146" x="263.5" y="511.4189">boolean checkBoardForMate()</text><rect fill="#F24D5C" height="6" style="stroke:#C82930;stroke-width:1.0;" width="6" x="251.5" y="517.8359"/><text fill="#000000" font-family="sans-serif" font-size="11" lengthAdjust="spacing" textLength="198" x="263.5" y="525.2549">boolean checkBoardForPawnPromotion()</text><rect fill="#F24D5C" height="6" style="stroke:#C82930;stroke-width:1.0;" width="6" x="251.5" y="531.6719"/><text fill="#000000" font-family="sans-serif" font-size="11" lengthAdjust="spacing" textLength="170" x="263.5" y="539.0908">boolean checkBoardForStaleMate()</text><rect fill="#F24D5C" height="6" style="stroke:#C82930;stroke-width:1.0;" width="6" x="251.5" y="545.5078"/><text fill="#000000" font-family="sans-serif" font-size="11" lengthAdjust="spacing" textLength="304" x="263.5" y="552.9268">List&lt;Pair&lt;int row, int col&gt;&gt; getThreatenedSquares(char colour)</text><rect fill="#F24D5C" height="6" style="stroke:#C82930;stroke-width:1.0;" width="6" x="251.5" y="559.3438"/><text fill="#000000" font-family="sans-serif" font-size="11" lengthAdjust="spacing" textLength="224" x="263.5" y="566.7627">void setPiece(Pair&lt;int row, int col&gt; coordinate)</text><rect fill="#F24D5C" height="6" style="stroke:#C82930;stroke-width:1.0;" width="6" x="251.5" y="573.1797"/><text fill="#000000" font-family="sans-serif" font-size="11" lengthAdjust="spacing" textLength="251" x="263.5" y="580.5986">Piece removePiece(Pair&lt;int row, int col&gt; coordinate)</text><!--MD5=[b6dcce5e5ef3c84b0b048d11301373dd]
class Game--><rect codeLine="39" fill="#FEFECE" filter="url(#f1lsu57x8ingen)" height="227.8672" id="Game" style="stroke:#A80036;stroke-width:1.5;" width="158" x="178.5" y="29.6406"/><ellipse cx="236.25" cy="45.6406" fill="#ADD1B2" rx="11" ry="11" style="stroke:#A80036;stroke-width:1.0;"/><path d="M239.0156,41.5156 Q239.1719,41.2969 239.3594,41.1875 Q239.5469,41.0781 239.7656,41.0781 Q240.1406,41.0781 240.375,41.3438 Q240.6094,41.5938 240.6094,42.2031 L240.6094,43.6563 Q240.6094,44.2656 240.375,44.5313 Q240.1406,44.7969 239.7656,44.7969 Q239.4219,44.7969 239.2188,44.5938 Q239.0156,44.4063 238.9063,43.8906 Q238.8594,43.5313 238.6719,43.3438 Q238.3438,42.9688 237.7344,42.75 Q237.125,42.5313 236.5,42.5313 Q235.7344,42.5313 235.0938,42.8594 Q234.4688,43.1875 233.9688,43.9375 Q233.4844,44.6875 233.4844,45.7188 L233.4844,46.8125 Q233.4844,48.0469 234.375,48.875 Q235.2656,49.6875 236.8594,49.6875 Q237.7969,49.6875 238.4531,49.4375 Q238.8438,49.2813 239.2656,48.8438 Q239.5313,48.5781 239.6719,48.5 Q239.8281,48.4219 240.0313,48.4219 Q240.3594,48.4219 240.6094,48.6875 Q240.875,48.9375 240.875,49.2813 Q240.875,49.625 240.5313,50.0313 Q240.0313,50.6094 239.2344,50.9375 Q238.1563,51.3906 236.8594,51.3906 Q235.3438,51.3906 234.1406,50.7656 Q233.1563,50.2656 232.4688,49.2031 Q231.7813,48.125 231.7813,46.8438 L231.7813,45.6875 Q231.7813,44.3594 232.3906,43.2188 Q233.0156,42.0625 234.1094,41.4531 Q235.2031,40.8281 236.4375,40.8281 Q237.1719,40.8281 237.8125,41 Q238.4688,41.1563 239.0156,41.5156 Z " fill="#000000"/><text fill="#000000" font-family="sans-serif" font-size="12" lengthAdjust="spacing" textLength="34" x="256.75" y="50.5508">Game</text><line style="stroke:#A80036;stroke-width:1.5;" x1="179.5" x2="335.5" y1="61.6406" y2="61.6406"/><rect fill="none" height="6" style="stroke:#C82930;stroke-width:1.0;" width="6" x="186.5" y="69.6406"/><text fill="#000000" font-family="sans-serif" font-size="11" lengthAdjust="spacing" textLength="60" x="198.5" y="77.0596">Board board</text><rect fill="none" height="6" style="stroke:#C82930;stroke-width:1.0;" width="6" x="186.5" y="83.4766"/><text fill="#000000" font-family="sans-serif" font-size="11" lengthAdjust="spacing" textLength="67" x="198.5" y="90.8955">Calendar date</text><rect fill="none" height="6" style="stroke:#C82930;stroke-width:1.0;" width="6" x="186.5" y="97.3125"/><text fill="#000000" font-family="sans-serif" font-size="11" lengthAdjust="spacing" textLength="81" x="198.5" y="104.7314">String playerOne</text><rect fill="none" height="6" style="stroke:#C82930;stroke-width:1.0;" width="6" x="186.5" y="111.1484"/><text fill="#000000" font-family="sans-serif" font-size="11" lengthAdjust="spacing" textLength="83" x="198.5" y="118.5674">String playerTwo</text><rect fill="none" height="6" style="stroke:#C82930;stroke-width:1.0;" width="6" x="186.5" y="124.9844"/><text fill="#000000" font-family="sans-serif" font-size="11" lengthAdjust="spacing" textLength="90" x="198.5" y="132.4033">List&lt;Move&gt; moves</text><line style="stroke:#A80036;stroke-width:1.5;" x1="179.5" x2="335.5" y1="138.8203" y2="138.8203"/><ellipse cx="189.5" cy="149.8203" fill="#84BE84" rx="3" ry="3" style="stroke:#038048;stroke-width:1.0;"/><text fill="#000000" font-family="sans-serif" font-size="11" lengthAdjust="spacing" textLength="84" x="198.5" y="154.2393">Board getBoard()</text><ellipse cx="189.5" cy="163.6563" fill="#84BE84" rx="3" ry="3" style="stroke:#038048;stroke-width:1.0;"/><text fill="#000000" font-family="sans-serif" font-size="11" lengthAdjust="spacing" textLength="70" x="198.5" y="168.0752">Date getDate()</text><ellipse cx="189.5" cy="177.4922" fill="#84BE84" rx="3" ry="3" style="stroke:#038048;stroke-width:1.0;"/><text fill="#000000" font-family="sans-serif" font-size="11" lengthAdjust="spacing" textLength="104" x="198.5" y="181.9111">String getPlayerOne()</text><ellipse cx="189.5" cy="191.3281" fill="#84BE84" rx="3" ry="3" style="stroke:#038048;stroke-width:1.0;"/><text fill="#000000" font-family="sans-serif" font-size="11" lengthAdjust="spacing" textLength="106" x="198.5" y="195.7471">String getPlayerTwo()</text><ellipse cx="189.5" cy="205.1641" fill="#84BE84" rx="3" ry="3" style="stroke:#038048;stroke-width:1.0;"/><text fill="#000000" font-family="sans-serif" font-size="11" lengthAdjust="spacing" textLength="113" x="198.5" y="209.583">List&lt;Move&gt; getMoves()</text><ellipse cx="189.5" cy="219" fill="#84BE84" rx="3" ry="3" style="stroke:#038048;stroke-width:1.0;"/><text fill="#000000" font-family="sans-serif" font-size="11" lengthAdjust="spacing" textLength="102" x="198.5" y="223.4189">void stepBackward()</text><ellipse cx="189.5" cy="232.8359" fill="#84BE84" rx="3" ry="3" style="stroke:#038048;stroke-width:1.0;"/><text fill="#000000" font-family="sans-serif" font-size="11" lengthAdjust="spacing" textLength="94" x="198.5" y="237.2549">void stepForward()</text><ellipse cx="189.5" cy="246.6719" fill="#84BE84" rx="3" ry="3" style="stroke:#038048;stroke-width:1.0;"/><text fill="#000000" font-family="sans-serif" font-size="11" lengthAdjust="spacing" textLength="132" x="198.5" y="251.0908">boolean checkBoardState()</text><!--MD5=[e05bacf3ff4416a0580578814d41bbf6]
class Piece--><rect codeLine="56" fill="#FEFECE" filter="url(#f1lsu57x8ingen)" height="131.0156" id="Piece" style="stroke:#A80036;stroke-width:1.5;" width="178" x="319.5" y="646.6406"/><ellipse cx="388.75" cy="662.6406" fill="#A9DCDF" rx="11" ry="11" style="stroke:#A80036;stroke-width:1.0;"/><path d="M390.9375,664.4063 L386.7969,664.4063 L386.375,665.4375 L386.7969,665.4375 Q387.4063,665.4375 387.6719,665.6719 Q387.9375,665.9063 387.9375,666.2969 Q387.9375,666.6719 387.6719,666.9063 Q387.4063,667.1406 386.7969,667.1406 L384.5,667.1406 Q383.8906,667.1406 383.6406,666.9063 Q383.375,666.6719 383.375,666.2813 Q383.375,665.9063 383.6563,665.6719 Q383.9219,665.4219 384.5469,665.4375 L387.2188,658.7813 L386.1094,658.7813 Q385.5,658.7813 385.2344,658.5469 Q384.9688,658.3125 384.9688,657.9219 Q384.9688,657.5469 385.2344,657.3125 Q385.5,657.0781 386.1094,657.0781 L389.7813,657.0781 L393.1719,665.4375 Q393.7656,665.4375 393.9531,665.5781 Q394.3438,665.8438 394.3438,666.2969 Q394.3438,666.6719 394.0781,666.9063 Q393.8281,667.1406 393.2188,667.1406 L390.9219,667.1406 Q390.3125,667.1406 390.0469,666.9063 Q389.7813,666.6719 389.7813,666.2813 Q389.7813,665.9063 390.0469,665.6719 Q390.3125,665.4375 390.9219,665.4375 L391.3438,665.4375 L390.9375,664.4063 Z M390.2188,662.7031 L388.8594,659.3281 L387.4844,662.7031 L390.2188,662.7031 Z " fill="#000000"/><text fill="#000000" font-family="sans-serif" font-size="12" font-style="italic" lengthAdjust="spacing" textLength="31" x="409.25" y="667.5508">Piece</text><line style="stroke:#A80036;stroke-width:1.5;" x1="320.5" x2="496.5" y1="678.6406" y2="678.6406"/><rect fill="none" height="6" style="stroke:#C82930;stroke-width:1.0;" width="6" x="327.5" y="686.6406"/><text fill="#000000" font-family="sans-serif" font-size="11" lengthAdjust="spacing" textLength="55" x="339.5" y="694.0596">char colour</text><rect fill="none" height="6" style="stroke:#C82930;stroke-width:1.0;" width="6" x="327.5" y="700.4766"/><text fill="#000000" font-family="sans-serif" font-size="11" lengthAdjust="spacing" textLength="152" x="339.5" y="707.8955">Pair&lt;int row, int col&gt; coordinate</text><rect fill="none" height="6" style="stroke:#C82930;stroke-width:1.0;" width="6" x="327.5" y="714.3125"/><text fill="#000000" font-family="sans-serif" font-size="11" lengthAdjust="spacing" textLength="60" x="339.5" y="721.7314">Board board</text><line style="stroke:#A80036;stroke-width:1.5;" x1="320.5" x2="496.5" y1="728.1484" y2="728.1484"/><ellipse cx="330.5" cy="739.1484" fill="#84BE84" rx="3" ry="3" style="stroke:#038048;stroke-width:1.0;"/><text fill="#000000" font-family="sans-serif" font-size="11" font-style="italic" lengthAdjust="spacing" textLength="141" x="339.5" y="743.5674">List&lt;Move&gt; getLegalMoves()</text><ellipse cx="330.5" cy="752.9844" fill="#84BE84" rx="3" ry="3" style="stroke:#038048;stroke-width:1.0;"/><text fill="#000000" font-family="sans-serif" font-size="11" font-style="italic" lengthAdjust="spacing" textLength="78" x="339.5" y="757.4033">Piece getType()</text><ellipse cx="330.5" cy="766.8203" fill="#84BE84" rx="3" ry="3" style="stroke:#038048;stroke-width:1.0;"/><text fill="#000000" font-family="sans-serif" font-size="11" lengthAdjust="spacing" textLength="79" x="339.5" y="771.2393">char getColour()</text><!--MD5=[6bd8cd731001ea389c78559e5d225136]
class Rook--><rect codeLine="66" fill="#FEFECE" filter="url(#f1lsu57x8ingen)" height="61.8359" id="Rook" style="stroke:#A80036;stroke-width:1.5;" width="99" x="89" y="837.6406"/><ellipse cx="121.1" cy="853.6406" fill="#ADD1B2" rx="11" ry="11" style="stroke:#A80036;stroke-width:1.0;"/><path d="M123.8656,849.5156 Q124.0219,849.2969 124.2094,849.1875 Q124.3969,849.0781 124.6156,849.0781 Q124.9906,849.0781 125.225,849.3438 Q125.4594,849.5938 125.4594,850.2031 L125.4594,851.6563 Q125.4594,852.2656 125.225,852.5313 Q124.9906,852.7969 124.6156,852.7969 Q124.2719,852.7969 124.0688,852.5938 Q123.8656,852.4063 123.7563,851.8906 Q123.7094,851.5313 123.5219,851.3438 Q123.1938,850.9688 122.5844,850.75 Q121.975,850.5313 121.35,850.5313 Q120.5844,850.5313 119.9438,850.8594 Q119.3188,851.1875 118.8188,851.9375 Q118.3344,852.6875 118.3344,853.7188 L118.3344,854.8125 Q118.3344,856.0469 119.225,856.875 Q120.1156,857.6875 121.7094,857.6875 Q122.6469,857.6875 123.3031,857.4375 Q123.6938,857.2813 124.1156,856.8438 Q124.3813,856.5781 124.5219,856.5 Q124.6781,856.4219 124.8813,856.4219 Q125.2094,856.4219 125.4594,856.6875 Q125.725,856.9375 125.725,857.2813 Q125.725,857.625 125.3813,858.0313 Q124.8813,858.6094 124.0844,858.9375 Q123.0063,859.3906 121.7094,859.3906 Q120.1938,859.3906 118.9906,858.7656 Q118.0063,858.2656 117.3188,857.2031 Q116.6313,856.125 116.6313,854.8438 L116.6313,853.6875 Q116.6313,852.3594 117.2406,851.2188 Q117.8656,850.0625 118.9594,849.4531 Q120.0531,848.8281 121.2875,848.8281 Q122.0219,848.8281 122.6625,849 Q123.3188,849.1563 123.8656,849.5156 Z " fill="#000000"/><text fill="#000000" font-family="sans-serif" font-size="12" lengthAdjust="spacing" textLength="29" x="138.9" y="858.5508">Rook</text><line style="stroke:#A80036;stroke-width:1.5;" x1="90" x2="187" y1="869.6406" y2="869.6406"/><rect fill="none" height="6" style="stroke:#C82930;stroke-width:1.0;" width="6" x="97" y="877.6406"/><text fill="#000000" font-family="sans-serif" font-size="11" lengthAdjust="spacing" textLength="73" x="109" y="885.0596">boolean moved</text><line style="stroke:#A80036;stroke-width:1.5;" x1="90" x2="187" y1="891.4766" y2="891.4766"/><!--MD5=[af29ca247b3a3642f0fb478cea99ef78]
class Pawn--><rect codeLine="70" fill="#FEFECE" filter="url(#f1lsu57x8ingen)" height="48" id="Pawn" style="stroke:#A80036;stroke-width:1.5;" width="63" x="223" y="844.6406"/><ellipse cx="238" cy="860.6406" fill="#ADD1B2" rx="11" ry="11" style="stroke:#A80036;stroke-width:1.0;"/><path d="M240.7656,856.5156 Q240.9219,856.2969 241.1094,856.1875 Q241.2969,856.0781 241.5156,856.0781 Q241.8906,856.0781 242.125,856.3438 Q242.3594,856.5938 242.3594,857.2031 L242.3594,858.6563 Q242.3594,859.2656 242.125,859.5313 Q241.8906,859.7969 241.5156,859.7969 Q241.1719,859.7969 240.9688,859.5938 Q240.7656,859.4063 240.6563,858.8906 Q240.6094,858.5313 240.4219,858.3438 Q240.0938,857.9688 239.4844,857.75 Q238.875,857.5313 238.25,857.5313 Q237.4844,857.5313 236.8438,857.8594 Q236.2188,858.1875 235.7188,858.9375 Q235.2344,859.6875 235.2344,860.7188 L235.2344,861.8125 Q235.2344,863.0469 236.125,863.875 Q237.0156,864.6875 238.6094,864.6875 Q239.5469,864.6875 240.2031,864.4375 Q240.5938,864.2813 241.0156,863.8438 Q241.2813,863.5781 241.4219,863.5 Q241.5781,863.4219 241.7813,863.4219 Q242.1094,863.4219 242.3594,863.6875 Q242.625,863.9375 242.625,864.2813 Q242.625,864.625 242.2813,865.0313 Q241.7813,865.6094 240.9844,865.9375 Q239.9063,866.3906 238.6094,866.3906 Q237.0938,866.3906 235.8906,865.7656 Q234.9063,865.2656 234.2188,864.2031 Q233.5313,863.125 233.5313,861.8438 L233.5313,860.6875 Q233.5313,859.3594 234.1406,858.2188 Q234.7656,857.0625 235.8594,856.4531 Q236.9531,855.8281 238.1875,855.8281 Q238.9219,855.8281 239.5625,856 Q240.2188,856.1563 240.7656,856.5156 Z " fill="#000000"/><text fill="#000000" font-family="sans-serif" font-size="12" lengthAdjust="spacing" textLength="31" x="252" y="865.5508">Pawn</text><line style="stroke:#A80036;stroke-width:1.5;" x1="224" x2="285" y1="876.6406" y2="876.6406"/><line style="stroke:#A80036;stroke-width:1.5;" x1="224" x2="285" y1="884.6406" y2="884.6406"/><!--MD5=[449cd079d44679d193659f94873ba755]
class Bishop--><rect codeLine="74" fill="#FEFECE" filter="url(#f1lsu57x8ingen)" height="48" id="Bishop" style="stroke:#A80036;stroke-width:1.5;" width="71" x="321" y="844.6406"/><ellipse cx="336" cy="860.6406" fill="#ADD1B2" rx="11" ry="11" style="stroke:#A80036;stroke-width:1.0;"/><path d="M338.7656,856.5156 Q338.9219,856.2969 339.1094,856.1875 Q339.2969,856.0781 339.5156,856.0781 Q339.8906,856.0781 340.125,856.3438 Q340.3594,856.5938 340.3594,857.2031 L340.3594,858.6563 Q340.3594,859.2656 340.125,859.5313 Q339.8906,859.7969 339.5156,859.7969 Q339.1719,859.7969 338.9688,859.5938 Q338.7656,859.4063 338.6563,858.8906 Q338.6094,858.5313 338.4219,858.3438 Q338.0938,857.9688 337.4844,857.75 Q336.875,857.5313 336.25,857.5313 Q335.4844,857.5313 334.8438,857.8594 Q334.2188,858.1875 333.7188,858.9375 Q333.2344,859.6875 333.2344,860.7188 L333.2344,861.8125 Q333.2344,863.0469 334.125,863.875 Q335.0156,864.6875 336.6094,864.6875 Q337.5469,864.6875 338.2031,864.4375 Q338.5938,864.2813 339.0156,863.8438 Q339.2813,863.5781 339.4219,863.5 Q339.5781,863.4219 339.7813,863.4219 Q340.1094,863.4219 340.3594,863.6875 Q340.625,863.9375 340.625,864.2813 Q340.625,864.625 340.2813,865.0313 Q339.7813,865.6094 338.9844,865.9375 Q337.9063,866.3906 336.6094,866.3906 Q335.0938,866.3906 333.8906,865.7656 Q332.9063,865.2656 332.2188,864.2031 Q331.5313,863.125 331.5313,861.8438 L331.5313,860.6875 Q331.5313,859.3594 332.1406,858.2188 Q332.7656,857.0625 333.8594,856.4531 Q334.9531,855.8281 336.1875,855.8281 Q336.9219,855.8281 337.5625,856 Q338.2188,856.1563 338.7656,856.5156 Z " fill="#000000"/><text fill="#000000" font-family="sans-serif" font-size="12" lengthAdjust="spacing" textLength="39" x="350" y="865.5508">Bishop</text><line style="stroke:#A80036;stroke-width:1.5;" x1="322" x2="391" y1="876.6406" y2="876.6406"/><line style="stroke:#A80036;stroke-width:1.5;" x1="322" x2="391" y1="884.6406" y2="884.6406"/><!--MD5=[f12c1f668f765232aff110b8f6a6681d]
class Knight--><rect codeLine="78" fill="#FEFECE" filter="url(#f1lsu57x8ingen)" height="48" id="Knight" style="stroke:#A80036;stroke-width:1.5;" width="67" x="427" y="844.6406"/><ellipse cx="442" cy="860.6406" fill="#ADD1B2" rx="11" ry="11" style="stroke:#A80036;stroke-width:1.0;"/><path d="M444.7656,856.5156 Q444.9219,856.2969 445.1094,856.1875 Q445.2969,856.0781 445.5156,856.0781 Q445.8906,856.0781 446.125,856.3438 Q446.3594,856.5938 446.3594,857.2031 L446.3594,858.6563 Q446.3594,859.2656 446.125,859.5313 Q445.8906,859.7969 445.5156,859.7969 Q445.1719,859.7969 444.9688,859.5938 Q444.7656,859.4063 444.6563,858.8906 Q444.6094,858.5313 444.4219,858.3438 Q444.0938,857.9688 443.4844,857.75 Q442.875,857.5313 442.25,857.5313 Q441.4844,857.5313 440.8438,857.8594 Q440.2188,858.1875 439.7188,858.9375 Q439.2344,859.6875 439.2344,860.7188 L439.2344,861.8125 Q439.2344,863.0469 440.125,863.875 Q441.0156,864.6875 442.6094,864.6875 Q443.5469,864.6875 444.2031,864.4375 Q444.5938,864.2813 445.0156,863.8438 Q445.2813,863.5781 445.4219,863.5 Q445.5781,863.4219 445.7813,863.4219 Q446.1094,863.4219 446.3594,863.6875 Q446.625,863.9375 446.625,864.2813 Q446.625,864.625 446.2813,865.0313 Q445.7813,865.6094 444.9844,865.9375 Q443.9063,866.3906 442.6094,866.3906 Q441.0938,866.3906 439.8906,865.7656 Q438.9063,865.2656 438.2188,864.2031 Q437.5313,863.125 437.5313,861.8438 L437.5313,860.6875 Q437.5313,859.3594 438.1406,858.2188 Q438.7656,857.0625 439.8594,856.4531 Q440.9531,855.8281 442.1875,855.8281 Q442.9219,855.8281 443.5625,856 Q444.2188,856.1563 444.7656,856.5156 Z " fill="#000000"/><text fill="#000000" font-family="sans-serif" font-size="12" lengthAdjust="spacing" textLength="35" x="456" y="865.5508">Knight</text><line style="stroke:#A80036;stroke-width:1.5;" x1="428" x2="493" y1="876.6406" y2="876.6406"/><line style="stroke:#A80036;stroke-width:1.5;" x1="428" x2="493" y1="884.6406" y2="884.6406"/><!--MD5=[76412a1b87b0f1c748604a3142aab9ae]
class King--><rect codeLine="82" fill="#FEFECE" filter="url(#f1lsu57x8ingen)" height="61.8359" id="King" style="stroke:#A80036;stroke-width:1.5;" width="99" x="529" y="837.6406"/><ellipse cx="562.9" cy="853.6406" fill="#ADD1B2" rx="11" ry="11" style="stroke:#A80036;stroke-width:1.0;"/><path d="M565.6656,849.5156 Q565.8219,849.2969 566.0094,849.1875 Q566.1969,849.0781 566.4156,849.0781 Q566.7906,849.0781 567.025,849.3438 Q567.2594,849.5938 567.2594,850.2031 L567.2594,851.6563 Q567.2594,852.2656 567.025,852.5313 Q566.7906,852.7969 566.4156,852.7969 Q566.0719,852.7969 565.8688,852.5938 Q565.6656,852.4063 565.5563,851.8906 Q565.5094,851.5313 565.3219,851.3438 Q564.9938,850.9688 564.3844,850.75 Q563.775,850.5313 563.15,850.5313 Q562.3844,850.5313 561.7438,850.8594 Q561.1188,851.1875 560.6188,851.9375 Q560.1344,852.6875 560.1344,853.7188 L560.1344,854.8125 Q560.1344,856.0469 561.025,856.875 Q561.9156,857.6875 563.5094,857.6875 Q564.4469,857.6875 565.1031,857.4375 Q565.4938,857.2813 565.9156,856.8438 Q566.1813,856.5781 566.3219,856.5 Q566.4781,856.4219 566.6813,856.4219 Q567.0094,856.4219 567.2594,856.6875 Q567.525,856.9375 567.525,857.2813 Q567.525,857.625 567.1813,858.0313 Q566.6813,858.6094 565.8844,858.9375 Q564.8063,859.3906 563.5094,859.3906 Q561.9938,859.3906 560.7906,858.7656 Q559.8063,858.2656 559.1188,857.2031 Q558.4313,856.125 558.4313,854.8438 L558.4313,853.6875 Q558.4313,852.3594 559.0406,851.2188 Q559.6656,850.0625 560.7594,849.4531 Q561.8531,848.8281 563.0875,848.8281 Q563.8219,848.8281 564.4625,849 Q565.1188,849.1563 565.6656,849.5156 Z " fill="#000000"/><text fill="#000000" font-family="sans-serif" font-size="12" lengthAdjust="spacing" textLength="25" x="581.1" y="858.5508">King</text><line style="stroke:#A80036;stroke-width:1.5;" x1="530" x2="627" y1="869.6406" y2="869.6406"/><rect fill="none" height="6" style="stroke:#C82930;stroke-width:1.0;" width="6" x="537" y="877.6406"/><text fill="#000000" font-family="sans-serif" font-size="11" lengthAdjust="spacing" textLength="73" x="549" y="885.0596">boolean moved</text><line style="stroke:#A80036;stroke-width:1.5;" x1="530" x2="627" y1="891.4766" y2="891.4766"/><!--MD5=[b5524c1f1cf4f7aeecdc9b5af5b05d87]
class Queen--><rect codeLine="86" fill="#FEFECE" filter="url(#f1lsu57x8ingen)" height="48" id="Queen" style="stroke:#A80036;stroke-width:1.5;" width="69" x="663" y="844.6406"/><ellipse cx="678" cy="860.6406" fill="#ADD1B2" rx="11" ry="11" style="stroke:#A80036;stroke-width:1.0;"/><path d="M680.7656,856.5156 Q680.9219,856.2969 681.1094,856.1875 Q681.2969,856.0781 681.5156,856.0781 Q681.8906,856.0781 682.125,856.3438 Q682.3594,856.5938 682.3594,857.2031 L682.3594,858.6563 Q682.3594,859.2656 682.125,859.5313 Q681.8906,859.7969 681.5156,859.7969 Q681.1719,859.7969 680.9688,859.5938 Q680.7656,859.4063 680.6563,858.8906 Q680.6094,858.5313 680.4219,858.3438 Q680.0938,857.9688 679.4844,857.75 Q678.875,857.5313 678.25,857.5313 Q677.4844,857.5313 676.8438,857.8594 Q676.2188,858.1875 675.7188,858.9375 Q675.2344,859.6875 675.2344,860.7188 L675.2344,861.8125 Q675.2344,863.0469 676.125,863.875 Q677.0156,864.6875 678.6094,864.6875 Q679.5469,864.6875 680.2031,864.4375 Q680.5938,864.2813 681.0156,863.8438 Q681.2813,863.5781 681.4219,863.5 Q681.5781,863.4219 681.7813,863.4219 Q682.1094,863.4219 682.3594,863.6875 Q682.625,863.9375 682.625,864.2813 Q682.625,864.625 682.2813,865.0313 Q681.7813,865.6094 680.9844,865.9375 Q679.9063,866.3906 678.6094,866.3906 Q677.0938,866.3906 675.8906,865.7656 Q674.9063,865.2656 674.2188,864.2031 Q673.5313,863.125 673.5313,861.8438 L673.5313,860.6875 Q673.5313,859.3594 674.1406,858.2188 Q674.7656,857.0625 675.8594,856.4531 Q676.9531,855.8281 678.1875,855.8281 Q678.9219,855.8281 679.5625,856 Q680.2188,856.1563 680.7656,856.5156 Z " fill="#000000"/><text fill="#000000" font-family="sans-serif" font-size="12" lengthAdjust="spacing" textLength="37" x="692" y="865.5508">Queen</text><line style="stroke:#A80036;stroke-width:1.5;" x1="664" x2="731" y1="876.6406" y2="876.6406"/><line style="stroke:#A80036;stroke-width:1.5;" x1="664" x2="731" y1="884.6406" y2="884.6406"/><!--MD5=[f155965888366d3428fedfbd66dbdc67]
reverse link Piece to Rook--><path d="M301.89,774.1406 C262.65,796.6006 220.05,820.9706 188.19,839.2006 " fill="none" id="Piece-backto-Rook" style="stroke:#A80036;stroke-width:1.0;"/><polygon fill="none" points="298.51,768.0106,319.34,764.1606,305.46,780.1706,298.51,768.0106" style="stroke:#A80036;stroke-width:1.0;"/><!--MD5=[9f812a98cb9947e5b96a7c66f6bc972c]
reverse link Piece to Pawn--><path d="M329.87,792.0206 C310.77,811.1806 291.8,830.2106 277.68,844.3906 " fill="none" id="Piece-backto-Pawn" style="stroke:#A80036;stroke-width:1.0;"/><polygon fill="none" points="325.01,786.9906,344.08,777.7706,334.92,796.8706,325.01,786.9906" style="stroke:#A80036;stroke-width:1.0;"/><!--MD5=[3a653eda681fe0f42514424c6a5b352b]
reverse link Piece to Bishop--><path d="M380.35,796.7806 C374.45,814.3106 368.7,831.3906 364.33,844.3906 " fill="none" id="Piece-backto-Bishop" style="stroke:#A80036;stroke-width:1.0;"/><polygon fill="none" points="373.73,794.4906,386.75,777.7706,387,798.9506,373.73,794.4906" style="stroke:#A80036;stroke-width:1.0;"/><!--MD5=[0bba69bd4d15d8b23c124755577550ff]
reverse link Piece to Knight--><path d="M436.65,796.7806 C442.55,814.3106 448.3,831.3906 452.67,844.3906 " fill="none" id="Piece-backto-Knight" style="stroke:#A80036;stroke-width:1.0;"/><polygon fill="none" points="430,798.9506,430.25,777.7706,443.27,794.4906,430,798.9506" style="stroke:#A80036;stroke-width:1.0;"/><!--MD5=[9fa21af85290b4f921ebc4dd17726164]
reverse link Piece to King--><path d="M494.66,791.4506 C512.65,807.7906 530.56,824.0706 545.19,837.3606 " fill="none" id="Piece-backto-King" style="stroke:#A80036;stroke-width:1.0;"/><polygon fill="none" points="489.7,796.4006,479.61,777.7706,499.12,786.0406,489.7,796.4006" style="stroke:#A80036;stroke-width:1.0;"/><!--MD5=[88f2e2291555f21143e81e756510c9ea]
reverse link Piece to Queen--><path d="M515.58,768.2506 C556.43,789.5706 603.31,814.4006 645.5,837.6406 C651.16,840.7606 657.13,844.1306 662.92,847.4406 " fill="none" id="Piece-backto-Queen" style="stroke:#A80036;stroke-width:1.0;"/><polygon fill="none" points="512.08,774.3206,497.57,758.8706,518.55,761.9006,512.08,774.3206" style="stroke:#A80036;stroke-width:1.0;"/><!--MD5=[fb405e7963bdde125b15055feb54c167]
link Game to Move--><path codeLine="90" d="M202.07,257.9006 C179.06,304.9306 153.4,357.3606 134.62,395.7306 " fill="none" id="Game-to-Move" style="stroke:#A80036;stroke-width:1.0;"/><polygon fill="#A80036" points="132.36,400.3406,139.9144,394.0215,134.5617,395.8515,132.7317,390.4988,132.36,400.3406" style="stroke:#A80036;stroke-width:1.0;"/><text fill="#000000" font-family="sans-serif" font-size="13" lengthAdjust="spacing" textLength="5" x="130.3646" y="389.8006">*</text><!--MD5=[15c8f9ca3aac13d865864b4eb5314ef1]
link Game to Board--><path codeLine="91" d="M313.3,257.9006 C322.13,275.8206 331.34,294.5306 340.41,312.9406 " fill="none" id="Game-to-Board" style="stroke:#A80036;stroke-width:1.0;"/><polygon fill="#A80036" points="342.72,317.6106,342.3483,307.7688,340.5183,313.1215,335.1656,311.2915,342.72,317.6106" style="stroke:#A80036;stroke-width:1.0;"/><text fill="#000000" font-family="sans-serif" font-size="13" lengthAdjust="spacing" textLength="18" x="320.3968" y="306.865">1:1</text><!--MD5=[0a810b5c09181f50bb8c28d8cc6d44bf]
link Board to Piece--><path codeLine="92" d="M408.5,586.6706 C408.5,607.4506 408.5,628.0806 408.5,646.3806 " fill="none" id="Board-Piece" style="stroke:#A80036;stroke-width:1.0;"/><text fill="#000000" font-family="sans-serif" font-size="13" lengthAdjust="spacing" textLength="18" x="389.9797" y="608.4051">1:1</text><text fill="#000000" font-family="sans-serif" font-size="13" lengthAdjust="spacing" textLength="25" x="382.1328" y="635.8266">2:32</text><!--MD5=[7169228af196aecd88154fe1727a36de]
link Board to Board--><path codeLine="93" d="M573.65,409.5506 C594.65,417.0006 608.5,431.1906 608.5,452.1406 C608.5,473.0906 594.65,487.2806 573.65,494.7306 " fill="none" id="Board-Board" style="stroke:#A80036;stroke-width:1.0;"/><!--MD5=[f2c429b85c906d10088b47e659980bfc]
@startuml Chess
title Chess


enum ChessColours {
    WHITE
    BLACK
    String toString()
}

class Move {
    -Pair<int row, int col> fromCoordinate
    -Pair<int row, int col> toCoordinate
    +boolean isValidMove(Move move)
    +String toString()

}

class Board {
    -List<ArrayList<Piece>> grid
    -Board previousBoard
    -Board nextBoard
    +boolean makeMove(Move move)
    +Piece getPiece(Pair<int row, int col> coordinate)
    +void castle(Piece piece)
    +Board goToNextBoard()
    +Board goToPreviousBoard()
    +String toString()
    -boolean checkBoardForCheck()
    -boolean checkBoardForMate()
    -boolean checkBoardForPawnPromotion()
    -boolean checkBoardForStaleMate()
    -List<Pair<int row, int col>> getThreatenedSquares(char colour)
    -void setPiece(Pair<int row, int col> coordinate)
    -Piece removePiece(Pair<int row, int col> coordinate)
    

}

class Game {
    -Board board
    -Calendar date
    -String playerOne
    -String playerTwo
    -List<Move> moves
    +Board getBoard()
    +Date getDate()
    +String getPlayerOne()
    +String getPlayerTwo()
    +List<Move> getMoves()
    +void stepBackward()
    +void stepForward()
    +boolean checkBoardState()

}

abstract class Piece {
    -char colour
    -Pair<int row, int col> coordinate
    -Board board
    + {abstract} List<Move> getLegalMoves()
    + {abstract} Piece getType()
    +char getColour()
    
}

class Rook extends Piece {
    -boolean moved
}

class Pawn extends Piece {

}

class Bishop extends Piece {
    
}

class Knight extends Piece {

}

class King extends Piece {
    -boolean moved
}

class Queen extends Piece {

}

Game - -> "*" Move
Game - -> "1:1" Board
Board "1:1"  - - "2:32" Piece
Board - - Board



@enduml

PlantUML version 1.2022.0(Tue Jan 11 17:16:42 CET 2022)
(GPL source distribution)
Java Runtime: OpenJDK Runtime Environment
JVM: OpenJDK 64-Bit Server VM
Default Encoding: Cp1252
Language: no
Country: NO
--></g></svg>